# AST/ASF file generated using VICON BodyLanguage
# -----------------------------------------------
:version 1.10
:name VICON
:units
  mass 1.0
  length 0.45
  angle deg
:documentation
   .ast/.asf automatically generated from VICON data using
   VICON BodyBuilder and BodyLanguage model FoxedUp or BRILLIANT.MOD
:root
   order TX TY TZ RX RY RZ
   axis XYZ
   position 0 0 0  
   orientation 0 0 0 
:bonedata
  begin
     id 1 
     name lhipjoint
     direction 0.543289 -0.788407 0.288535 
     length 2.57127 
     axis 0 0 0  XYZ
  end
  begin
     id 2 
     name lfemur
     direction 0.34202 -0.939693 0  
     length 8.47298  
     axis 0 0 20  XYZ
    dof rx ry rz
    limits (-160.0 20.0)
           (-70.0 70.0)
           (-60.0 70.0)
  end
  begin
     id 3 
     name ltibia
     direction 0.34202 -0.939693 0   
     length 8.13367   
     axis 0 0 20   XYZ
    dof rx
    limits (-10.0 170.0)
  end
  begin
     id 4 
     name lfoot
     direction 0.114037 -0.313314 0.942778   
     length 2.67113   
     axis -90 7.62852e-016 20   XYZ
    dof rx rz
    limits (-45.0 90.0)
           (-70.0 20.0)
  end
  begin
     id 5 
     name ltoes
     direction 1.536e-011 -4.21847e-011 1   
     length 1.32217   
     axis -90 7.62852e-016 20   XYZ
    dof rx
    limits (-90.0 20.0)
  end
  begin
     id 6 
     name rhipjoint
     direction -0.571293 -0.770752 0.282074   
     length 2.63017  
     axis 0 0 0  XYZ 
  end
  begin
     id 7 
     name rfemur
     direction -0.34202 -0.939693 0   
     length 8.60885   
     axis 0 0 -20   XYZ
    dof rx ry rz
    limits (-160.0 20.0)
           (-70.0 70.0)
           (-70.0 60.0)
  end
  begin
     id 8 
     name rtibia
     direction -0.34202 -0.939693 0   
     length 8.07673   
     axis 0 0 -20   XYZ
    dof rx
    limits (-10.0 170.0)
 end
 begin
     id 9 
     name rfoot
     direction -0.121336 -0.333368 0.934956   
     length 2.81602  
     axis -90 -7.62852e-016 -20   XYZ
    dof rx rz
    limits (-45.0 90.0)
           (-20.0 70.0)
  end
  begin
     id 10 
     name rtoes
     direction -1.53491e-011 -4.21808e-011 1   
     length 1.38905   
     axis -90 -7.62852e-016 -20   XYZ
    dof rx
    limits (-90.0 20.0)
  end
  begin
     id 11 
     name lowerback
     direction 0.0136776 0.999869 -0.00861835   
     length 2.14087   
     axis 0 0 0   XYZ
    dof rx ry rz
    limits (-20.0 45.0)
           (-30.0 30.0)
           (-30.0 30.0)
  end
  begin
     id 12 
     name upperback
     direction -0.00789158 0.999804 0.0181308   
     length 2.14151   
     axis 0 0 0   XYZ
    dof rx ry rz
    limits (-20.0 45.0)
           (-30.0 30.0)
           (-30.0 30.0)
  end
  begin
     id 13 
     name thorax
     direction -0.0135231 0.999666 0.0220247   
     length 2.13644   
     axis 0 0 0   XYZ
    dof rx ry rz
    limits (-20.0 45.0)
           (-30.0 30.0)
           (-30.0 30.0)
  end
  begin
     id 14 
     name lowerneck
     direction -0.0392259 0.997317 0.0618018   
     length 1.65045   
     axis 0 0 0   XYZ
    dof rx ry rz
    limits (-20.0 45.0)
           (-30.0 30.0)
           (-30.0 30.0)
  end
  begin
     id 15 
     name upperneck
     direction 0.0765547 0.994276 -0.0745319   
     length 1.66045   
     axis 0 0 0   XYZ
    dof rx ry rz
    limits (-20.0 45.0)
           (-30.0 30.0)
           (-30.0 30.0)
  end
  begin
     id 16
     name head
     direction 0.0241564 0.999031 -0.036785  
     length 1.66594  
     axis 0 0 0   XYZ
    dof rx ry rz
    limits (-20.0 45.0)
           (-30.0 30.0)
           (-30.0 30.0)
  end
  begin
     id 17 
     name lclavicle
     direction 0.967398 0.249018 0.0461573  
     length 3.75176  
     axis 0 0 0   XYZ
    dof ry rz
    limits (-20.0 10.0)
           (0.0 20.0)
  end
  begin
     id 18 
     name lhumerus
     direction 1 -4.48963e-011 -3.05005e-027   
     length 5.93342   
     axis 180 -30 -90   XYZ
    dof rx ry rz
    limits (-60.0 90.0)
           (-90.0 90.0)
           (-90.0 90.0)
  end
  begin
     id 19
     name lradius
     direction 1 -4.48957e-011 1.07006e-026   
     length 3.94763   
     axis 180 -30 -90   XYZ
    dof rx
    limits (-10.0 170.0)
  end
  begin
     id 20
     name lwrist
     direction 1 -4.48978e-011 1.92422e-026   
     length 1.97382   
     axis -1.18182e-014 90 90   XYZ
    dof ry
    limits (-180.0 0.0)
 end
  begin
     id 21 
     name lhand
     direction 1 -4.48931e-011 3.84844e-026   
     length 0.560187   
     axis -2.45563e-014 90 90   XYZ
    dof rx rz
    limits (-90.0 90.0)
           (-45.0 45.0)
  end
  begin
     id 22 
     name lfingers
     direction 1 -4.48952e-011 7.69687e-026   
     length 0.451637   
     axis -4.91126e-014 90 90   XYZ
    dof rx
    limits (0.0 90.0)
  end
  begin
     id 23
     name lthumb
     direction 0.707107 -6.34901e-011 0.707107   
     length 0.648463   
     axis -90 45 2.85299e-015   XYZ
    dof rx rz
    limits (-45.0 45.0)
           (-45.0 45.0)
  end
  begin
     id 24 
     name rclavicle
     direction -0.965946 0.258716 0.00371831   
     length 3.63667  
     axis 0 0 0   XYZ 
    dof ry rz
    limits (-10.0 20.0)
           (-20.0 0.0)
  end
  begin
     id 25 
     name rhumerus
     direction -1 -4.48966e-011 -1.78361e-028  
     length 6.28647   
     axis 180 30 90   XYZ
    dof rx ry rz
    limits (-90.0 60.0)
           (-90.0 90.0)
           (-90.0 90.0)
  end
  begin
     id 26 
     name rradius
     direction -1 -4.48961e-011 1.05248e-026   
     length 3.81645   
     axis 180 30 90   XYZ
    dof rx
    limits (-10.0 170.0)
  end
  begin
     id 27 
     name rwrist
     direction -1 -4.48979e-011 1.92422e-026   
     length 1.90822   
     axis -1.18182e-014 -90 -90   XYZ
    dof ry
    limits (-180.0 0.0)
  end
  begin
     id 28
     name rhand
     direction -1 -4.48937e-011 3.84844e-026   
     length 0.646185   
     axis -2.45563e-014 -90 -90   XYZ
    dof rx rz
    limits (-90.0 90.0)
           (-45.0 45.0)
  end
  begin
     id 29
     name rfingers
     direction -1 -4.48953e-011 7.69687e-026   
     length 0.520971   
     axis -4.91126e-014 -90 -90   XYZ
    dof rx
    limits (0.0 90.0)
  end
  begin
     id 30
     name rthumb
     direction -0.707107 -6.3494e-011 0.707107   
     length 0.748013   
     axis -90 -45 -2.85299e-015   XYZ
    dof rx rz
    limits (-45.0 45.0)
           (-45.0 45.0)
  end
:hierarchy
  begin
    root lhipjoint rhipjoint lowerback
    lhipjoint lfemur
    lfemur ltibia
    ltibia lfoot
    lfoot ltoes
    rhipjoint rfemur
    rfemur rtibia
    rtibia rfoot
    rfoot rtoes
    lowerback upperback
    upperback thorax
    thorax lowerneck lclavicle rclavicle
    lowerneck upperneck
    upperneck head
    lclavicle lhumerus
    lhumerus lradius
    lradius lwrist
    lwrist lhand lthumb
    lhand lfingers
    rclavicle rhumerus
    rhumerus rradius
    rradius rwrist
    rwrist rhand rthumb
    rhand rfingers
  end

#!OML:ASF H:\HAZMAT1\Patient Classification 1\Patient 3\Session 1\dancer.ASF
:FULLY-SPECIFIED
:DEGREES
193
upperback 3.304550 -15.137700 -3.671630
rfoot -28.743799 -22.821199
lradius 2.890530
lthumb 5.979570 73.237396
rradius 24.343100
lwrist -49.969101
rhand -43.784100 -46.894501
rhumerus -420.432007 -39.124401 -390.464996
lowerneck -15.855600 7.587610 4.040790
lhand -20.373100 43.341801
ltibia 20.581499
head 3.841800 4.855190 0.672559
rwrist 10.777100
lfingers 7.125020
rtoes 9.159340
lowerback 1.483760 -11.560600 -0.969029
rfingers 7.125020
lclavicle 0.000000 -0.000000
upperneck 2.763620 9.367360 1.780810
rfemur -66.032204 -1.424370 12.220800
thorax 1.863190 -7.443480 -3.181460
rclavicle 0.000000 -0.000000
rtibia 41.586498
lfoot 12.838400 19.606899
lhumerus -8.016720 41.898300 70.540604
rthumb -16.613300 -76.203499
root 35.225201 18.692400 21.142000 304.519989 100.323997 -1183.689941
ltoes 31.924801
lfemur -12.868100 -7.622400 -19.794399
194
upperback -0.398254 -17.169300 0.725394
rfoot -20.284500 -33.373299
lradius 9.406760
lthumb 18.988001 61.622002
rradius 17.645800
lwrist -43.644199
rhand -31.321501 -35.702000
rhumerus -423.738007 -19.551100 -411.281006
lowerneck -11.893600 7.320020 1.720000
lhand -6.878110 32.528801
ltibia 48.845001
head 1.903820 4.793680 -2.425740
rwrist 22.042299
lfingers 7.125020
rtoes 15.341100
lowerback -3.966840 -12.861100 -0.338736
rfingers 7.125020
lclavicle 0.000000 -0.000000
upperneck -2.186060 9.856470 -8.299120
rfemur -60.826099 1.039240 -13.089100
thorax 2.053320 -8.577470 -0.087209
rclavicle 0.000000 -0.000000
rtibia 29.269600
lfoot 40.026798 34.901001
lhumerus 56.499401 11.499500 85.682404
rthumb -4.593600 -65.632202
root 34.940201 19.512600 21.051300 326.523010 113.556000 -1166.680054
ltoes 46.026199
lfemur 15.566200 -0.333651 -12.105200
195
upperback -3.245630 -15.401600 5.905670
rfoot -30.491301 -43.430099
lradius 20.464300
lthumb 21.263800 50.890400
rradius 16.619801
lwrist -12.100800
rhand -6.911010 -24.382500
rhumerus -421.286987 6.468640 -424.377991
lowerneck -8.306520 0.509791 -14.783200
lhand -4.510370 22.036800
ltibia 116.915001
head 4.790950 1.099400 -0.136966
rwrist 29.509800
lfingers 7.125020
rtoes 20.142700
lowerback -1.950620 -11.572400 -3.748250
rfingers 7.125020
lclavicle -0.000000 0.000000
upperneck 11.212800 4.217760 -8.896110
rfemur -35.975899 6.801170 -13.639200
thorax 0.285622 -7.709880 7.492620
rclavicle -0.000000 0.000000
rtibia 24.839701
lfoot 44.734100 24.743700
lhumerus 78.912399 35.445999 46.391499
rthumb 18.956400 -53.478802
root 35.661201 19.854300 21.125299 331.997009 124.114998 -1146.790039
ltoes 50.486698
lfemur 3.317160 2.817540 11.201600
196
upperback -2.246130 -8.135600 7.617900
rfoot -32.448002 -31.227100
lradius 23.262600
lthumb 6.193820 57.439899
rradius 15.601000
lwrist -6.890460
rhand -16.300600 -9.964460
rhumerus -419.911011 26.494200 -448.726990
lowerneck -5.263230 -6.988290 -16.125799
lhand -20.151199 27.550501
ltibia 121.221001
head 9.856170 -3.537300 -0.214973
rwrist 31.037201
lfingers 7.125020
rtoes 12.569200
lowerback -0.236405 -6.296910 -2.613250
rfingers 7.125020
lclavicle 0.000000 -0.000000
upperneck 26.714100 -3.934890 -7.301570
rfemur -11.474000 -6.062130 10.616300
thorax -0.709357 -3.946350 9.401430
rclavicle 0.000000 -0.000000
rtibia 27.354700
lfoot 43.618301 13.254800
lhumerus 19.027399 50.427399 -5.737570
rthumb 9.910150 -39.711201
root 36.944901 19.215200 21.375401 342.368011 126.542999 -1113.420044
ltoes 47.258301
lfemur -24.204700 5.970720 -2.597990
197
upperback -1.657470 0.046129 4.178220
rfoot -39.465500 -28.514000
lradius 22.493700
lthumb -0.048580 70.732399
rradius 20.757700
lwrist -5.223280
rhand -14.912400 -15.689200
rhumerus -388.449005 42.844002 -442.153015
lowerneck -3.279150 -10.071100 -11.295600
lhand -26.615299 40.752602
ltibia 97.683998
head 11.942300 -5.559840 0.828975
rwrist 24.275700
lfingers 7.125020
rtoes 11.869200
lowerback -2.754990 -0.024298 2.314960
rfingers 7.125020
lclavicle 0.000000 0.000000
upperneck 32.519100 -10.953600 0.069125
rfemur 4.275760 -6.655650 29.488501
thorax -0.160998 0.083612 2.996600
rclavicle 0.000000 0.000000
rtibia 29.782200
lfoot 21.144899 13.193000
lhumerus -24.357599 31.770500 -21.956400
rthumb 11.249200 -45.367599
root 38.563900 17.795799 21.290300 354.359009 119.582001 -1086.089966
ltoes 36.313702
lfemur -46.320702 -17.768499 -9.929120
198
upperback -3.168430 5.525960 -1.252920
rfoot -38.173801 -19.993799
lradius 18.426901
lthumb 18.411800 55.478901
rradius 50.507801
lwrist -11.666600
rhand -12.906300 -15.214600
rhumerus -354.834991 48.635799 -413.351013
lowerneck -4.884560 -9.802180 -7.065490
lhand -7.477260 26.330200
ltibia 46.067902
head 10.770300 -5.767110 2.028810
rwrist -8.971630
lfingers 7.125020
rtoes -3.974180
lowerback -5.733990 4.199530 3.174310
rfingers 7.125020
lclavicle 0.000000 -0.000000
upperneck 28.160801 -13.418100 6.275390
rfemur 17.075701 -7.909330 32.351700
thorax 0.356237 2.759580 -2.713820
rclavicle 0.000000 -0.000000
rtibia 26.848301
lfoot 4.967170 10.845400
lhumerus -57.917099 20.464300 -2.086270
rthumb 13.183500 -44.777699
root 41.025902 16.906200 20.992701 363.880005 108.725998 -1073.810059
ltoes -4.054720
lfemur -56.145100 -26.220400 0.694524
199
upperback -4.250010 6.411780 -3.468460
rfoot -35.145802 -10.621100
lradius 16.474400
lthumb 26.294901 44.632198
rradius 78.879898
lwrist -14.376300
rhand -4.127450 -33.750599
rhumerus -343.455994 40.789902 -403.953003
lowerneck -8.587180 -7.038720 -5.068120
lhand 0.735747 16.434601
ltibia 38.554001
head 7.026880 -4.365740 3.502810
rwrist -37.443100
lfingers 7.125020
rtoes -20.391300
lowerback -6.698520 4.754080 1.275410
rfingers 7.125020
lclavicle 0.000000 -0.000000
upperneck 15.520100 -10.507900 11.197900
rfemur 24.989700 -2.005090 27.261600
thorax -0.116752 3.218970 -3.848150
rclavicle 0.000000 -0.000000
rtibia 21.424299
lfoot 12.703700 14.647800
lhumerus -63.000198 27.442600 41.020699
rthumb 21.631599 -62.562302
root 44.183498 16.074301 20.246901 413.687012 94.418602 -1030.479980
ltoes -22.511499
lfemur -63.614399 -30.942200 20.874599
200
upperback -3.162500 5.771570 -5.110320
rfoot -32.087399 -12.388300
lradius 16.978001
lthumb 26.368700 38.061798
rradius 78.158600
lwrist -17.361799
rhand -19.129101 -27.842199
rhumerus -338.932007 6.882180 -407.829987
lowerneck -5.881430 -8.158310 -6.630920
lhand 0.812878 9.875230
ltibia 59.411800
head 0.309130 -4.802510 5.459400
rwrist -81.540703
lfingers 7.125020
rtoes -21.804300
lowerback -2.010770 4.296710 0.735370
rfingers 7.125020
lclavicle -0.000000 0.000000
upperneck -6.256590 -9.970640 15.517800
rfemur 11.964900 2.413080 22.985399
thorax -1.533840 2.877040 -5.633840
rclavicle -0.000000 0.000000
rtibia 18.790100
lfoot -13.032700 12.327400
lhumerus -41.759899 20.056700 49.842300
rthumb 7.180580 -57.700401
root 46.599998 15.575100 19.420300 514.947998 95.949203 -949.270020
ltoes -28.034401
lfemur -79.661697 -11.954700 18.576900
201
upperback -0.998585 5.856560 -3.543940
rfoot -29.293400 -3.897710
lradius 16.353800
lthumb 30.063999 39.855499
rradius 72.063103
lwrist -19.485201
rhand -13.040800 -13.222000
rhumerus -335.503998 16.645700 -395.959015
lowerneck -4.498900 -8.684370 -7.634490
lhand 4.679300 12.279900
ltibia 63.860100
head 0.461120 -5.372280 5.889510
rwrist -65.700600
lfingers 7.125020
rtoes -27.849100
lowerback 1.596010 4.406860 0.801536
rfingers 7.125020
lclavicle -0.000000 -0.000000
upperneck -5.717070 -10.898000 16.449699
rfemur -12.676000 -6.326600 9.042130
thorax -1.466450 2.911570 -4.240470
rclavicle -0.000000 -0.000000
rtibia 34.489101
lfoot -25.540100 4.344680
lhumerus -37.062801 19.433599 33.127701
rthumb 13.053900 -42.793499
root 47.241600 15.706500 18.583599 561.950012 112.485001 -914.343018
ltoes -38.121601
lfemur -83.509201 0.641819 13.572700
